<svg width="231" height="50" viewBox="0 0 231 50" fill="none" xmlns="http://www.w3.org/2000/svg">
<path d="M17.5681 14.656C19.9921 14.656 22.1521 15.208 24.0481 16.312C25.9441 17.392 27.4081 18.904 28.4401 20.848C29.4961 22.768 30.0241 24.964 30.0241 27.436C30.0241 29.908 29.4961 32.116 28.4401 34.06C27.4081 35.98 25.9441 37.492 24.0481 38.596C22.1521 39.676 19.9921 40.216 17.5681 40.216C15.1201 40.216 12.9481 39.676 11.0521 38.596C9.15611 37.492 7.68011 35.98 6.62411 34.06C5.56811 32.116 5.04011 29.908 5.04011 27.436C5.04011 24.964 5.56811 22.768 6.62411 20.848C7.68011 18.904 9.15611 17.392 11.0521 16.312C12.9481 15.208 15.1201 14.656 17.5681 14.656ZM17.5681 16.096C15.3361 16.096 13.3921 16.576 11.7361 17.536C10.0801 18.472 8.80811 19.792 7.92011 21.496C7.03211 23.2 6.58811 25.18 6.58811 27.436C6.58811 29.668 7.03211 31.648 7.92011 33.376C8.80811 35.08 10.0801 36.412 11.7361 37.372C13.3921 38.332 15.3361 38.812 17.5681 38.812C19.7761 38.812 21.6961 38.332 23.3281 37.372C24.9841 36.412 26.2561 35.08 27.1441 33.376C28.0321 31.648 28.4761 29.668 28.4761 27.436C28.4761 25.18 28.0321 23.2 27.1441 21.496C26.2561 19.792 24.9841 18.472 23.3281 17.536C21.6961 16.576 19.7761 16.096 17.5681 16.096ZM17.4961 19.084C16.0561 19.084 14.7361 19.42 13.5361 20.092C12.3601 20.764 11.4241 21.736 10.7281 23.008C10.0321 24.256 9.68411 25.72 9.68411 27.4C9.68411 29.08 10.0321 30.556 10.7281 31.828C11.4241 33.076 12.3601 34.048 13.5361 34.744C14.7361 35.416 16.0561 35.752 17.4961 35.752C19.2961 35.752 20.8561 35.272 22.1761 34.312C23.4961 33.328 24.3961 32.02 24.8761 30.388H21.8521C21.1321 32.38 19.6801 33.376 17.4961 33.376C16.0561 33.376 14.8801 32.86 13.9681 31.828C13.0561 30.796 12.6001 29.332 12.6001 27.436C12.6001 25.516 13.0561 24.04 13.9681 23.008C14.8801 21.976 16.0561 21.46 17.4961 21.46C18.5521 21.46 19.4641 21.724 20.2321 22.252C21.0001 22.756 21.5401 23.488 21.8521 24.448H24.8761C24.4201 22.744 23.5321 21.424 22.2121 20.488C20.8921 19.552 19.3201 19.084 17.4961 19.084Z" fill="#11A44C"/>
<path d="M51.7987 29.8976C53.0787 28.831 54.0987 27.9443 54.8587 27.2376C55.6187 26.5176 56.252 25.7709 56.7587 24.9976C57.2654 24.2243 57.5187 23.4643 57.5187 22.7176C57.5187 22.0376 57.3587 21.5043 57.0387 21.1176C56.7187 20.7309 56.2254 20.5376 55.5587 20.5376C54.892 20.5376 54.3787 20.7643 54.0187 21.2176C53.6587 21.6576 53.472 22.2643 53.4587 23.0376H50.7387C50.792 21.4376 51.2654 20.2243 52.1587 19.3976C53.0654 18.5709 54.212 18.1576 55.5987 18.1576C57.1187 18.1576 58.2854 18.5643 59.0987 19.3776C59.912 20.1776 60.3187 21.2376 60.3187 22.5576C60.3187 23.5976 60.0387 24.591 59.4787 25.5376C58.9187 26.4843 58.2787 27.311 57.5587 28.0176C56.8387 28.711 55.8987 29.551 54.7387 30.5376H60.6387V32.8576H50.7587V30.7776L51.7987 29.8976ZM63.0031 25.5776C63.0031 23.2709 63.4164 21.4643 64.2431 20.1576C65.0831 18.8509 66.4697 18.1976 68.4031 18.1976C70.3364 18.1976 71.7164 18.8509 72.5431 20.1576C73.3831 21.4643 73.8031 23.2709 73.8031 25.5776C73.8031 27.8976 73.3831 29.7176 72.5431 31.0376C71.7164 32.3576 70.3364 33.0176 68.4031 33.0176C66.4697 33.0176 65.0831 32.3576 64.2431 31.0376C63.4164 29.7176 63.0031 27.8976 63.0031 25.5776ZM71.0431 25.5776C71.0431 24.591 70.9764 23.7643 70.8431 23.0976C70.7231 22.4176 70.4697 21.8643 70.0831 21.4376C69.7097 21.0109 69.1497 20.7976 68.4031 20.7976C67.6564 20.7976 67.0897 21.0109 66.7031 21.4376C66.3297 21.8643 66.0764 22.4176 65.9431 23.0976C65.8231 23.7643 65.7631 24.591 65.7631 25.5776C65.7631 26.591 65.8231 27.4443 65.9431 28.1376C66.0631 28.8176 66.3164 29.371 66.7031 29.7976C67.0897 30.211 67.6564 30.4176 68.4031 30.4176C69.1497 30.4176 69.7164 30.211 70.1031 29.7976C70.4897 29.371 70.7431 28.8176 70.8631 28.1376C70.9831 27.4443 71.0431 26.591 71.0431 25.5776ZM77.4128 29.8976C78.6928 28.831 79.7128 27.9443 80.4728 27.2376C81.2328 26.5176 81.8661 25.7709 82.3728 24.9976C82.8794 24.2243 83.1328 23.4643 83.1328 22.7176C83.1328 22.0376 82.9728 21.5043 82.6528 21.1176C82.3328 20.7309 81.8394 20.5376 81.1728 20.5376C80.5061 20.5376 79.9928 20.7643 79.6328 21.2176C79.2728 21.6576 79.0861 22.2643 79.0728 23.0376H76.3528C76.4061 21.4376 76.8794 20.2243 77.7728 19.3976C78.6794 18.5709 79.8261 18.1576 81.2128 18.1576C82.7328 18.1576 83.8994 18.5643 84.7128 19.3776C85.5261 20.1776 85.9328 21.2376 85.9328 22.5576C85.9328 23.5976 85.6528 24.591 85.0928 25.5376C84.5328 26.4843 83.8928 27.311 83.1728 28.0176C82.4528 28.711 81.5128 29.551 80.3528 30.5376H86.2528V32.8576H76.3728V30.7776L77.4128 29.8976ZM98.4171 20.8976H91.9371V24.3176C92.2171 23.971 92.6171 23.6909 93.1371 23.4776C93.6571 23.251 94.2105 23.1376 94.7971 23.1376C95.8638 23.1376 96.7371 23.371 97.4171 23.8376C98.0971 24.3043 98.5905 24.9043 98.8971 25.6376C99.2038 26.3576 99.3571 27.131 99.3571 27.9576C99.3571 29.491 98.9171 30.7243 98.0371 31.6576C97.1705 32.591 95.9305 33.0576 94.3171 33.0576C92.7971 33.0576 91.5838 32.6776 90.6771 31.9176C89.7705 31.1576 89.2571 30.1643 89.1371 28.9376H91.8571C91.9771 29.471 92.2438 29.8976 92.6571 30.2176C93.0838 30.5376 93.6238 30.6976 94.2771 30.6976C95.0638 30.6976 95.6571 30.451 96.0571 29.9576C96.4571 29.4643 96.6571 28.811 96.6571 27.9976C96.6571 27.171 96.4505 26.5443 96.0371 26.1176C95.6371 25.6776 95.0438 25.4576 94.2571 25.4576C93.6971 25.4576 93.2305 25.5976 92.8571 25.8776C92.4838 26.1576 92.2171 26.531 92.0571 26.9976H89.3771V18.4376H98.4171V20.8976ZM110.574 23.6976C110.934 23.111 111.401 22.651 111.974 22.3176C112.561 21.9843 113.227 21.8176 113.974 21.8176V24.7576H113.234C112.354 24.7576 111.687 24.9643 111.234 25.3776C110.794 25.791 110.574 26.511 110.574 27.5376V33.0576H107.774V21.9776H110.574V23.6976ZM122.58 33.0576L120.3 29.6176L118.28 33.0576H115.28L118.9 27.4976L115.24 21.9776H118.4L120.66 25.3976L122.7 21.9776H125.7L122.06 27.4976L125.74 33.0576H122.58ZM141.621 21.8176C142.981 21.8176 144.074 22.2376 144.901 23.0776C145.741 23.9043 146.161 25.0643 146.161 26.5576V33.0576H143.361V26.9376C143.361 26.071 143.141 25.411 142.701 24.9576C142.261 24.4909 141.661 24.2576 140.901 24.2576C140.141 24.2576 139.534 24.4909 139.081 24.9576C138.641 25.411 138.421 26.071 138.421 26.9376V33.0576H135.621V26.9376C135.621 26.071 135.401 25.411 134.961 24.9576C134.521 24.4909 133.921 24.2576 133.161 24.2576C132.387 24.2576 131.774 24.4909 131.321 24.9576C130.881 25.411 130.661 26.071 130.661 26.9376V33.0576H127.861V21.9776H130.661V23.3176C131.021 22.851 131.481 22.4843 132.041 22.2176C132.614 21.9509 133.241 21.8176 133.921 21.8176C134.787 21.8176 135.561 22.0043 136.241 22.3776C136.921 22.7376 137.447 23.2576 137.821 23.9376C138.181 23.2976 138.701 22.7843 139.381 22.3976C140.074 22.0109 140.821 21.8176 141.621 21.8176ZM159.718 27.2776C159.718 27.6776 159.691 28.0376 159.638 28.3576H151.538C151.604 29.1576 151.884 29.7843 152.378 30.2376C152.871 30.691 153.478 30.9176 154.198 30.9176C155.238 30.9176 155.978 30.471 156.418 29.5776H159.438C159.118 30.6443 158.504 31.5243 157.598 32.2176C156.691 32.8976 155.578 33.2376 154.258 33.2376C153.191 33.2376 152.231 33.0043 151.378 32.5376C150.538 32.0576 149.878 31.3843 149.398 30.5176C148.931 29.651 148.698 28.651 148.698 27.5176C148.698 26.371 148.931 25.3643 149.398 24.4976C149.864 23.6309 150.518 22.9643 151.358 22.4976C152.198 22.031 153.164 21.7976 154.258 21.7976C155.311 21.7976 156.251 22.0243 157.078 22.4776C157.918 22.9309 158.564 23.5776 159.018 24.4176C159.484 25.2443 159.718 26.1976 159.718 27.2776ZM156.818 26.4776C156.804 25.7576 156.544 25.1843 156.038 24.7576C155.531 24.3176 154.911 24.0976 154.178 24.0976C153.484 24.0976 152.898 24.311 152.418 24.7376C151.951 25.151 151.664 25.731 151.558 26.4776H156.818ZM161.641 27.4776C161.641 26.3576 161.861 25.3643 162.301 24.4976C162.755 23.6309 163.368 22.9643 164.141 22.4976C164.915 22.031 165.775 21.7976 166.721 21.7976C167.441 21.7976 168.128 21.9576 168.781 22.2776C169.435 22.5843 169.955 22.9976 170.341 23.5176V18.2576H173.181V33.0576H170.341V31.4176C169.995 31.9643 169.508 32.4043 168.881 32.7376C168.255 33.071 167.528 33.2376 166.701 33.2376C165.768 33.2376 164.915 32.9976 164.141 32.5176C163.368 32.0376 162.755 31.3643 162.301 30.4976C161.861 29.6176 161.641 28.611 161.641 27.4776ZM170.361 27.5176C170.361 26.8376 170.228 26.2576 169.961 25.7776C169.695 25.2843 169.335 24.911 168.881 24.6576C168.428 24.391 167.941 24.2576 167.421 24.2576C166.901 24.2576 166.421 24.3843 165.981 24.6376C165.541 24.891 165.181 25.2643 164.901 25.7576C164.635 26.2376 164.501 26.811 164.501 27.4776C164.501 28.1443 164.635 28.731 164.901 29.2376C165.181 29.731 165.541 30.111 165.981 30.3776C166.435 30.6443 166.915 30.7776 167.421 30.7776C167.941 30.7776 168.428 30.651 168.881 30.3976C169.335 30.131 169.695 29.7576 169.961 29.2776C170.228 28.7843 170.361 28.1976 170.361 27.5176ZM177.936 20.6576C177.443 20.6576 177.029 20.5043 176.696 20.1976C176.376 19.8776 176.216 19.4843 176.216 19.0176C176.216 18.5509 176.376 18.1643 176.696 17.8576C177.029 17.5376 177.443 17.3776 177.936 17.3776C178.429 17.3776 178.836 17.5376 179.156 17.8576C179.489 18.1643 179.656 18.5509 179.656 19.0176C179.656 19.4843 179.489 19.8776 179.156 20.1976C178.836 20.5043 178.429 20.6576 177.936 20.6576ZM179.316 21.9776V33.0576H176.516V21.9776H179.316ZM181.962 27.4776C181.962 26.3576 182.182 25.3643 182.622 24.4976C183.076 23.6309 183.682 22.9643 184.442 22.4976C185.216 22.031 186.076 21.7976 187.022 21.7976C187.849 21.7976 188.569 21.9643 189.182 22.2976C189.809 22.631 190.309 23.051 190.682 23.5576V21.9776H193.502V33.0576H190.682V31.4376C190.322 31.9576 189.822 32.391 189.182 32.7376C188.556 33.071 187.829 33.2376 187.002 33.2376C186.069 33.2376 185.216 32.9976 184.442 32.5176C183.682 32.0376 183.076 31.3643 182.622 30.4976C182.182 29.6176 181.962 28.611 181.962 27.4776ZM190.682 27.5176C190.682 26.8376 190.549 26.2576 190.282 25.7776C190.016 25.2843 189.656 24.911 189.202 24.6576C188.749 24.391 188.262 24.2576 187.742 24.2576C187.222 24.2576 186.742 24.3843 186.302 24.6376C185.862 24.891 185.502 25.2643 185.222 25.7576C184.956 26.2376 184.822 26.811 184.822 27.4776C184.822 28.1443 184.956 28.731 185.222 29.2376C185.502 29.731 185.862 30.111 186.302 30.3776C186.756 30.6443 187.236 30.7776 187.742 30.7776C188.262 30.7776 188.749 30.651 189.202 30.3976C189.656 30.131 190.016 29.7576 190.282 29.2776C190.549 28.7843 190.682 28.1976 190.682 27.5176ZM205.797 20.5976L200.477 33.0576H197.637L202.997 20.9176H196.157V18.5176H205.797V20.5976Z" fill="#11A44C"/>
</svg>
