<svg width="128" height="128" viewBox="0 0 128 128" fill="none" xmlns="http://www.w3.org/2000/svg">
<path d="M128 97.8945H0V97.9585H128V97.8945Z" fill="#EBEBEB"/>
<path d="M115.174 102.013H101.589V102.077H115.174V102.013Z" fill="#EBEBEB"/>
<path d="M84.7924 101.212H69.7754V101.276H84.7924V101.212Z" fill="#EBEBEB"/>
<path d="M102.244 100.844H97.3312V100.908H102.244V100.844Z" fill="#EBEBEB"/>
<path d="M36.777 100.068H25.7203V100.132H36.777V100.068Z" fill="#EBEBEB"/>
<path d="M24.2944 100.068H20.3417V100.132H24.2944V100.068Z" fill="#EBEBEB"/>
<path d="M47.5315 101.148H33.6563V101.212H47.5315V101.148Z" fill="#EBEBEB"/>
<path d="M60.672 86.4769H11.2409C10.8537 86.4762 10.4826 86.3219 10.209 86.0478C9.93539 85.7738 9.78174 85.4024 9.78174 85.0151V15.529C9.78511 15.144 9.94025 14.7759 10.2135 14.5046C10.4867 14.2333 10.8559 14.0807 11.2409 14.0801H60.672C61.0597 14.0801 61.4315 14.2341 61.7056 14.5082C61.9797 14.7824 62.1337 15.1542 62.1337 15.5418V85.0151C62.1337 85.4028 61.9797 85.7746 61.7056 86.0487C61.4315 86.3229 61.0597 86.4769 60.672 86.4769ZM11.2409 14.1313C10.8707 14.132 10.5158 14.2795 10.2542 14.5416C9.99265 14.8036 9.84574 15.1588 9.84574 15.529V85.0151C9.84574 85.3854 9.99265 85.7405 10.2542 86.0026C10.5158 86.2646 10.8707 86.4122 11.2409 86.4129H60.672C61.0425 86.4122 61.3976 86.2647 61.6596 86.0027C61.9216 85.7408 62.0691 85.3856 62.0697 85.0151V15.529C62.0691 15.1585 61.9216 14.8034 61.6596 14.5414C61.3976 14.2794 61.0425 14.132 60.672 14.1313H11.2409Z" fill="#EBEBEB"/>
<path d="M116.047 86.4769H66.6137C66.2263 86.4762 65.8549 86.322 65.5809 86.048C65.3069 85.774 65.1527 85.4026 65.152 85.0151V15.529C65.156 15.1438 65.3117 14.7756 65.5854 14.5044C65.859 14.2332 66.2285 14.0807 66.6137 14.0801H116.047C116.432 14.0814 116.8 14.2343 117.073 14.5055C117.346 14.7767 117.501 15.1445 117.504 15.529V85.0151C117.504 85.4019 117.351 85.7729 117.078 86.0469C116.805 86.3209 116.434 86.4755 116.047 86.4769ZM66.6137 14.1313C66.2432 14.132 65.8881 14.2794 65.6261 14.5414C65.3641 14.8034 65.2167 15.1585 65.216 15.529V85.0151C65.2167 85.3856 65.3641 85.7408 65.6261 86.0027C65.8881 86.2647 66.2432 86.4122 66.6137 86.4129H116.047C116.418 86.4122 116.773 86.2647 117.035 86.0027C117.297 85.7408 117.444 85.3856 117.445 85.0151V15.529C117.444 15.1585 117.297 14.8034 117.035 14.5414C116.773 14.2794 116.418 14.132 116.047 14.1313H66.6137Z" fill="#EBEBEB"/>
<path d="M54.9274 96.6067H58.7955L58.7955 59.351H54.9274L54.9274 96.6067Z" fill="#F0F0F0"/>
<path d="M14.0032 97.8918H58.0762V96.6067H14.0032V97.8918Z" fill="#F0F0F0"/>
<path d="M54.9273 59.3486H13.3862V96.6043H54.9273V59.3486Z" fill="#F5F5F5"/>
<path d="M53.6653 78.7483H14.6509V85.4017H53.6653V78.7483Z" fill="#F0F0F0"/>
<path d="M53.6653 87.4548H14.6509V94.1083H53.6653V87.4548Z" fill="#F0F0F0"/>
<path d="M18.0429 79.2524H50.2681C50.4449 79.2524 50.5881 79.1092 50.5881 78.9324V78.6611C50.5881 78.4844 50.4449 78.3411 50.2681 78.3411H18.0429C17.8661 78.3411 17.7229 78.4844 17.7229 78.6611V78.9324C17.7229 79.1092 17.8661 79.2524 18.0429 79.2524Z" fill="#F5F5F5"/>
<path d="M18.0429 87.9592H50.2681C50.4449 87.9592 50.5881 87.816 50.5881 87.6392V87.3679C50.5881 87.1911 50.4449 87.0479 50.2681 87.0479H18.0429C17.8661 87.0479 17.7229 87.1911 17.7229 87.3679V87.6392C17.7229 87.816 17.8661 87.9592 18.0429 87.9592Z" fill="#F5F5F5"/>
<path d="M53.6653 61.4043H14.6509V68.0577H53.6653V61.4043Z" fill="#F0F0F0"/>
<path d="M53.6653 70.0417H14.6509V76.6952H53.6653V70.0417Z" fill="#F0F0F0"/>
<path d="M18.0429 61.9084L50.2681 61.9084C50.4449 61.9084 50.5881 61.7652 50.5881 61.5884V61.3171C50.5881 61.1404 50.4449 60.9971 50.2681 60.9971L18.0429 60.9971C17.8661 60.9971 17.7229 61.1404 17.7229 61.3171V61.5884C17.7229 61.7652 17.8661 61.9084 18.0429 61.9084Z" fill="#F5F5F5"/>
<path d="M18.0429 70.5459H50.2681C50.4449 70.5459 50.5881 70.4026 50.5881 70.2259V69.9545C50.5881 69.7778 50.4449 69.6345 50.2681 69.6345H18.0429C17.8661 69.6345 17.7229 69.7778 17.7229 69.9545V70.2259C17.7229 70.4026 17.8661 70.5459 18.0429 70.5459Z" fill="#F5F5F5"/>
<path d="M76.0576 97.8945H78.4948V75.4664H76.0576V97.8945Z" fill="#E6E6E6"/>
<path d="M75.4099 97.8945H76.8435V75.4664H75.4099V97.8945Z" fill="#F0F0F0"/>
<path d="M86.4256 97.8945H88.8627V75.4664H86.4256V97.8945Z" fill="#E6E6E6"/>
<path d="M85.9699 97.8945H87.4035V75.4664H85.9699V97.8945Z" fill="#F0F0F0"/>
<path d="M99.1923 75.4663H74.9645V78.0058H99.1923V75.4663Z" fill="#F0F0F0"/>
<path d="M107.5 71.5906C106.317 72.0386 104.381 74.8879 102.797 75.4664H97.5667C95.9795 74.8879 94.0467 72.0386 92.864 71.5906C95.2983 71.3995 97.7429 71.3755 100.18 71.5189C102.619 71.3756 105.064 71.3995 107.5 71.5906Z" fill="#F0F0F0"/>
<path d="M109.765 97.8945H112.202V75.4664H109.765V97.8945Z" fill="#E6E6E6"/>
<path d="M109.309 97.8945H110.743V75.4664H109.309V97.8945Z" fill="#F0F0F0"/>
<path d="M112.637 75.4663H100.234V78.0058H112.637V75.4663Z" fill="#E6E6E6"/>
<path d="M99.3971 97.8945H101.834V75.4664H99.3971V97.8945Z" fill="#E6E6E6"/>
<path d="M98.7469 97.8945H100.18V75.4664H98.7469V97.8945Z" fill="#F0F0F0"/>
<path d="M27.8758 53.161C27.8758 56.0052 25.111 58.3092 21.7037 58.3092C18.2963 58.3092 15.5315 56.0052 15.5315 53.161C15.5315 50.5012 17.9481 48.3124 21.0509 48.041L22.0467 51.2257L21.0227 53.1789L21.5757 54.9863L21.2224 55.9873L21.9725 54.9889L21.5321 53.4221L22.8915 51.2282L22.656 48.0743C25.6128 48.4557 27.8758 50.5882 27.8758 53.161Z" fill="#E6E6E6"/>
<path d="M21.0074 55.488H17.8918L16.6682 59.3485H18.3117L21.0074 55.488Z" fill="#E6E6E6"/>
<path d="M22.0672 55.488H25.1802L26.4064 59.3485H24.7629L22.0672 55.488Z" fill="#E6E6E6"/>
<path d="M17.0137 50.5166L17.6179 47.3396L19.4509 49.2161L17.0137 50.5166Z" fill="#E6E6E6"/>
<path d="M17.0138 55.0043L14.9172 54.7124C14.7764 54.6961 14.6465 54.6287 14.5521 54.523C14.4578 54.4173 14.4055 54.2807 14.4052 54.139V52.1831C14.4055 52.0415 14.4578 51.9048 14.5521 51.7991C14.6465 51.6934 14.7764 51.626 14.9172 51.6097L17.0138 51.3179V55.0043Z" fill="#E6E6E6"/>
<path d="M29.4707 53.8036C29.4546 53.806 29.4382 53.806 29.4221 53.8036C29.3912 53.7895 29.3668 53.7642 29.354 53.7328C29.3411 53.7014 29.3408 53.6663 29.353 53.6346C29.4371 53.4557 29.449 53.2512 29.3862 53.0637C29.3573 53.0232 29.3188 52.9905 29.2741 52.9686C29.2294 52.9467 29.18 52.9363 29.1302 52.9383C28.9024 52.9127 28.8282 53.033 28.7258 53.1943C28.5312 53.4989 28.311 53.7191 27.607 53.3044C27.578 53.2873 27.5568 53.2594 27.5482 53.2268C27.5396 53.1942 27.5442 53.1595 27.561 53.1303C27.5785 53.1011 27.6069 53.0799 27.6399 53.0713C27.6729 53.0626 27.708 53.0673 27.7376 53.0842C28.2854 53.4068 28.3699 53.2762 28.5056 53.0561C28.5601 52.9332 28.6522 52.8309 28.7686 52.7637C28.885 52.6965 29.0197 52.668 29.1533 52.6823C29.2425 52.685 29.3297 52.7099 29.4069 52.7545C29.4842 52.7992 29.5492 52.8624 29.5962 52.9383C29.6482 53.066 29.6735 53.203 29.6704 53.3408C29.6673 53.4786 29.636 53.6144 29.5782 53.7396C29.5673 53.7586 29.5517 53.7744 29.5328 53.7856C29.514 53.7968 29.4926 53.803 29.4707 53.8036Z" fill="#E6E6E6"/>
<path d="M23.4086 42.7393L109.379 42.7393V16.7578L23.4086 16.7578V42.7393Z" fill="#E6E6E6"/>
<path d="M21.0636 42.7393L108.833 42.7393V16.7578L21.0636 16.7578V42.7393Z" fill="#F0F0F0"/>
<path d="M23.4087 42.7419H109.379V44.6005H22.313L23.4087 42.7419Z" fill="#E6E6E6"/>
<path d="M19.1283 42.7419H106.898L106.391 44.6005H18.6215L19.1283 42.7419Z" fill="#F0F0F0"/>
<path d="M105.551 39.4574V20.0398L24.3456 20.0398V39.4574H105.551Z" fill="#FAFAFA"/>
<path d="M93.8189 39.4573L82.8288 20.0422H72.3353L83.3254 39.4573H93.8189Z" fill="white"/>
<path d="M81.0701 39.4573L70.0826 20.0422H65.9917L76.9792 39.4573H81.0701Z" fill="white"/>
<path d="M24.7629 39.4574V20.0398H24.3456V39.4574H24.7629Z" fill="#E6E6E6"/>
<path d="M64 109.455C91.4131 109.455 113.636 108.158 113.636 106.557C113.636 104.957 91.4131 103.659 64 103.659C36.5869 103.659 14.3641 104.957 14.3641 106.557C14.3641 108.158 36.5869 109.455 64 109.455Z" fill="#F5F5F5"/>
<path d="M103.557 69.5602H52.6131C51.3971 69.5602 50.4883 68.3519 50.5907 66.8748L53.0201 31.8258C53.1225 30.3487 54.2003 29.1404 55.4137 29.1404H106.358C107.571 29.1404 108.48 30.3487 108.378 31.8258L105.948 66.8748C105.848 68.3519 104.771 69.5602 103.557 69.5602Z" fill="white"/>
<g opacity="0.2">
<path d="M53.7805 69.6089C53.7724 69.6083 53.7645 69.606 53.7573 69.6023C53.7501 69.5986 53.7437 69.5936 53.7385 69.5874C53.7332 69.5812 53.7293 69.574 53.7268 69.5663C53.7244 69.5586 53.7235 69.5504 53.7242 69.5424L56.6886 29.0944C56.6915 29.0805 56.6991 29.0681 56.71 29.0592C56.721 29.0503 56.7347 29.0454 56.7488 29.0454C56.7629 29.0454 56.7766 29.0503 56.7876 29.0592C56.7985 29.0681 56.8061 29.0805 56.809 29.0944L53.847 69.5424C53.8474 69.5512 53.8459 69.56 53.8427 69.5683C53.8395 69.5765 53.8346 69.584 53.8284 69.5902C53.8221 69.5965 53.8146 69.6014 53.8064 69.6046C53.7981 69.6078 53.7893 69.6093 53.7805 69.6089Z" fill="#11A44C"/>
<path d="M57.0112 69.6087C57.0031 69.608 56.9953 69.6058 56.988 69.6021C56.9808 69.5984 56.9744 69.5933 56.9692 69.5871C56.964 69.5809 56.96 69.5738 56.9575 69.5661C56.9551 69.5583 56.9542 69.5502 56.9549 69.5421L59.9194 29.0941C59.9222 29.0803 59.9298 29.0679 59.9407 29.059C59.9517 29.05 59.9654 29.0452 59.9795 29.0452C59.9937 29.0452 60.0073 29.05 60.0183 29.059C60.0293 29.0679 60.0368 29.0803 60.0397 29.0941L57.0778 69.5421C57.0781 69.551 57.0766 69.5598 57.0734 69.568C57.0702 69.5763 57.0653 69.5837 57.0591 69.59C57.0528 69.5962 57.0453 69.6011 57.0371 69.6044C57.0289 69.6076 57.02 69.609 57.0112 69.6087Z" fill="#11A44C"/>
<path d="M60.2419 69.6087C60.2338 69.6081 60.226 69.6058 60.2188 69.6021C60.2115 69.5984 60.2051 69.5933 60.1999 69.5871C60.1947 69.581 60.1907 69.5738 60.1883 69.5661C60.1858 69.5584 60.1849 69.5502 60.1856 69.5421L63.1475 29.0941C63.1482 29.0861 63.1504 29.0782 63.1541 29.071C63.1578 29.0638 63.1629 29.0574 63.1691 29.0521C63.1753 29.0469 63.1824 29.0429 63.1901 29.0405C63.1979 29.038 63.206 29.0371 63.2141 29.0378C63.2299 29.0391 63.2446 29.0465 63.2551 29.0585C63.2656 29.0704 63.2711 29.0859 63.2704 29.1018L60.3085 69.5498C60.3072 69.5663 60.2995 69.5817 60.2871 69.5927C60.2747 69.6037 60.2585 69.6094 60.2419 69.6087Z" fill="#11A44C"/>
<path d="M63.4726 69.6087C63.4645 69.6081 63.4567 69.6058 63.4495 69.6021C63.4423 69.5984 63.4359 69.5933 63.4306 69.5871C63.4254 69.581 63.4214 69.5738 63.419 69.5661C63.4165 69.5584 63.4156 69.5502 63.4163 69.5421L66.3782 29.0941C66.3789 29.0861 66.3811 29.0782 66.3848 29.071C66.3885 29.0638 66.3936 29.0574 66.3998 29.0521C66.406 29.0469 66.4131 29.0429 66.4209 29.0405C66.4286 29.038 66.4367 29.0371 66.4448 29.0378C66.4606 29.0391 66.4754 29.0465 66.4859 29.0585C66.4964 29.0704 66.5018 29.0859 66.5011 29.1018L63.5392 69.5498C63.5379 69.5663 63.5302 69.5817 63.5178 69.5927C63.5054 69.6037 63.4892 69.6094 63.4726 69.6087Z" fill="#11A44C"/>
<path d="M66.7033 69.6087C66.6953 69.6081 66.6874 69.6058 66.6802 69.6021C66.673 69.5984 66.6666 69.5933 66.6613 69.5871C66.6561 69.581 66.6521 69.5738 66.6497 69.5661C66.6472 69.5584 66.6463 69.5502 66.647 69.5421L69.6089 29.0941C69.6096 29.0861 69.6118 29.0782 69.6155 29.071C69.6192 29.0638 69.6243 29.0574 69.6305 29.0521C69.6367 29.0469 69.6438 29.0429 69.6516 29.0405C69.6593 29.038 69.6674 29.0371 69.6755 29.0378C69.6913 29.0391 69.7061 29.0465 69.7166 29.0585C69.7271 29.0704 69.7325 29.0859 69.7318 29.1018L66.7699 69.5498C66.7686 69.5663 66.7609 69.5817 66.7485 69.5927C66.7361 69.6037 66.7199 69.6094 66.7033 69.6087Z" fill="#11A44C"/>
<path d="M69.9341 69.6087C69.926 69.6081 69.9181 69.6058 69.9109 69.6021C69.9037 69.5984 69.8973 69.5933 69.892 69.5871C69.8868 69.581 69.8828 69.5738 69.8804 69.5661C69.8779 69.5583 69.877 69.5502 69.8777 69.5421L72.8397 29.0941C72.8403 29.0861 72.8425 29.0782 72.8462 29.071C72.8499 29.0638 72.855 29.0574 72.8612 29.0521C72.8674 29.0469 72.8746 29.0429 72.8823 29.0405C72.89 29.038 72.8981 29.0371 72.9062 29.0378C72.9221 29.0391 72.9368 29.0465 72.9473 29.0585C72.9578 29.0704 72.9633 29.0859 72.9625 29.1018L69.9981 69.5498C69.9981 69.558 69.9964 69.5661 69.9931 69.5736C69.9899 69.5811 69.9851 69.5878 69.979 69.5934C69.973 69.5989 69.9659 69.6031 69.9582 69.6058C69.9504 69.6084 69.9422 69.6094 69.9341 69.6087Z" fill="#11A44C"/>
<path d="M73.1648 69.6087C73.1567 69.6081 73.1489 69.6058 73.1417 69.6021C73.1345 69.5984 73.1281 69.5933 73.1228 69.5871C73.1176 69.581 73.1136 69.5738 73.1112 69.5661C73.1087 69.5584 73.1078 69.5502 73.1085 69.5421L76.0704 29.0941C76.0711 29.0861 76.0733 29.0782 76.077 29.071C76.0807 29.0638 76.0858 29.0574 76.092 29.0521C76.0982 29.0469 76.1053 29.0429 76.1131 29.0405C76.1208 29.038 76.1289 29.0371 76.137 29.0378C76.1528 29.0391 76.1676 29.0465 76.1781 29.0585C76.1886 29.0704 76.194 29.0859 76.1933 29.1018L73.216 69.5498C73.2156 69.5641 73.2103 69.5777 73.201 69.5884C73.1916 69.5992 73.1789 69.6063 73.1648 69.6087Z" fill="#11A44C"/>
<path d="M76.3955 69.6087C76.3875 69.6081 76.3796 69.6058 76.3724 69.6021C76.3652 69.5984 76.3588 69.5933 76.3535 69.5871C76.3483 69.581 76.3443 69.5738 76.3419 69.5661C76.3394 69.5583 76.3385 69.5502 76.3392 69.5421L79.3011 29.0941C79.3018 29.0861 79.304 29.0782 79.3077 29.071C79.3114 29.0638 79.3165 29.0574 79.3227 29.0521C79.3289 29.0469 79.336 29.0429 79.3438 29.0405C79.3515 29.038 79.3596 29.0371 79.3677 29.0378C79.3835 29.0391 79.3983 29.0465 79.4088 29.0585C79.4193 29.0704 79.4247 29.0859 79.424 29.1018L76.4595 69.5498C76.4592 69.5579 76.4573 69.5658 76.4539 69.5732C76.4505 69.5805 76.4457 69.5871 76.4397 69.5925C76.4338 69.598 76.4268 69.6022 76.4193 69.605C76.4117 69.6078 76.4036 69.609 76.3955 69.6087Z" fill="#11A44C"/>
<path d="M79.616 69.6087C79.6079 69.6081 79.6 69.6058 79.5928 69.6021C79.5856 69.5984 79.5792 69.5933 79.574 69.5871C79.5687 69.581 79.5648 69.5738 79.5623 69.5661C79.5599 69.5583 79.559 69.5502 79.5597 69.5421L82.5216 29.0941C82.5222 29.0861 82.5245 29.0782 82.5282 29.071C82.5319 29.0638 82.537 29.0574 82.5432 29.0521C82.5493 29.0469 82.5565 29.0429 82.5642 29.0405C82.5719 29.038 82.5801 29.0371 82.5882 29.0378C82.604 29.0391 82.6187 29.0465 82.6292 29.0585C82.6397 29.0704 82.6452 29.0859 82.6445 29.1018L79.68 69.5498C79.6797 69.5579 79.6778 69.5658 79.6744 69.5732C79.671 69.5805 79.6662 69.5871 79.6602 69.5925C79.6543 69.598 79.6473 69.6022 79.6397 69.605C79.6321 69.6078 79.6241 69.609 79.616 69.6087Z" fill="#11A44C"/>
<path d="M82.8544 69.6087C82.8463 69.6081 82.8385 69.6058 82.8312 69.6021C82.824 69.5984 82.8176 69.5933 82.8124 69.5871C82.8072 69.581 82.8032 69.5738 82.8007 69.5661C82.7983 69.5583 82.7974 69.5502 82.7981 69.5421L85.76 29.0941C85.7606 29.0861 85.7629 29.0782 85.7666 29.071C85.7703 29.0638 85.7754 29.0574 85.7816 29.0521C85.7877 29.0469 85.7949 29.0429 85.8026 29.0405C85.8104 29.038 85.8185 29.0371 85.8266 29.0378C85.8424 29.0391 85.8571 29.0465 85.8676 29.0585C85.8781 29.0704 85.8836 29.0859 85.8829 29.1018L82.9184 69.5498C82.9181 69.5579 82.9162 69.5658 82.9128 69.5732C82.9094 69.5805 82.9046 69.5871 82.8986 69.5925C82.8927 69.598 82.8857 69.6022 82.8781 69.605C82.8705 69.6078 82.8625 69.609 82.8544 69.6087Z" fill="#11A44C"/>
<path d="M86.0851 69.6088C86.0686 69.6075 86.0532 69.5998 86.0422 69.5874C86.0313 69.575 86.0255 69.5588 86.0262 69.5422L88.9907 29.0942C88.992 29.0784 88.9994 29.0637 89.0114 29.0532C89.0233 29.0427 89.0388 29.0372 89.0547 29.0379C89.0628 29.0382 89.0707 29.0402 89.078 29.0435C89.0854 29.0469 89.092 29.0518 89.0974 29.0577C89.1029 29.0636 89.1071 29.0706 89.1099 29.0782C89.1127 29.0858 89.1139 29.0938 89.1136 29.1019L86.1491 69.5499C86.1488 69.558 86.1469 69.5659 86.1435 69.5732C86.1401 69.5806 86.1353 69.5871 86.1293 69.5926C86.1234 69.5981 86.1164 69.6023 86.1088 69.6051C86.1013 69.6079 86.0932 69.6091 86.0851 69.6088Z" fill="#11A44C"/>
<path d="M89.3158 69.6088C89.3077 69.6081 89.2999 69.6059 89.2927 69.6022C89.2855 69.5985 89.279 69.5934 89.2738 69.5872C89.2686 69.581 89.2646 69.5739 89.2622 69.5661C89.2597 69.5584 89.2588 69.5503 89.2595 69.5422L92.224 29.0942C92.2253 29.0784 92.2327 29.0637 92.2446 29.0532C92.2566 29.0427 92.2721 29.0372 92.288 29.0379C92.2959 29.0382 92.3038 29.0401 92.311 29.0436C92.3182 29.047 92.3246 29.0519 92.3299 29.0578C92.3351 29.0638 92.3391 29.0708 92.3416 29.0784C92.3441 29.086 92.345 29.094 92.3443 29.1019L89.3824 69.5499C89.3821 69.5582 89.3801 69.5664 89.3765 69.5739C89.373 69.5814 89.3679 69.5881 89.3617 69.5936C89.3555 69.5991 89.3482 69.6033 89.3403 69.6059C89.3324 69.6085 89.3241 69.6095 89.3158 69.6088Z" fill="#11A44C"/>
<path d="M92.5465 69.6087C92.5385 69.6081 92.5306 69.6059 92.5234 69.6022C92.5162 69.5985 92.5098 69.5934 92.5045 69.5872C92.4993 69.581 92.4953 69.5738 92.4929 69.5661C92.4904 69.5584 92.4895 69.5503 92.4902 69.5422L95.4547 29.0942C95.4528 29.0852 95.453 29.076 95.4552 29.0671C95.4573 29.0583 95.4614 29.05 95.4672 29.0429C95.473 29.0358 95.4802 29.0301 95.4885 29.0262C95.4967 29.0223 95.5057 29.0203 95.5149 29.0203C95.524 29.0203 95.533 29.0223 95.5412 29.0262C95.5495 29.0301 95.5567 29.0358 95.5625 29.0429C95.5683 29.05 95.5724 29.0583 95.5745 29.0671C95.5767 29.076 95.5769 29.0852 95.575 29.0942L92.6131 69.5422C92.6139 69.5511 92.6127 69.5601 92.6096 69.5685C92.6066 69.577 92.6017 69.5846 92.5953 69.591C92.589 69.5973 92.5813 69.6022 92.5729 69.6053C92.5645 69.6083 92.5555 69.6095 92.5465 69.6087Z" fill="#11A44C"/>
<path d="M95.7773 69.6087C95.7692 69.6081 95.7613 69.6059 95.7541 69.6022C95.7469 69.5985 95.7405 69.5934 95.7352 69.5872C95.73 69.581 95.726 69.5738 95.7236 69.5661C95.7211 69.5584 95.7202 69.5503 95.7209 69.5422L98.6854 29.0942C98.6836 29.0852 98.6837 29.076 98.6859 29.0671C98.6881 29.0583 98.6922 29.05 98.6979 29.0429C98.7037 29.0358 98.7109 29.0301 98.7192 29.0262C98.7274 29.0223 98.7364 29.0203 98.7456 29.0203C98.7547 29.0203 98.7637 29.0223 98.772 29.0262C98.7802 29.0301 98.7875 29.0358 98.7932 29.0429C98.799 29.05 98.8031 29.0583 98.8053 29.0671C98.8074 29.076 98.8076 29.0852 98.8057 29.0942L95.8438 69.5422C95.8442 69.551 95.8427 69.5598 95.8395 69.5681C95.8363 69.5763 95.8314 69.5838 95.8251 69.59C95.8189 69.5963 95.8114 69.6012 95.8031 69.6044C95.7949 69.6076 95.7861 69.6091 95.7773 69.6087Z" fill="#11A44C"/>
<path d="M99.008 69.6087C98.9999 69.6081 98.9921 69.6059 98.9849 69.6022C98.9777 69.5985 98.9712 69.5934 98.966 69.5872C98.9608 69.581 98.9568 69.5738 98.9544 69.5661C98.9519 69.5584 98.951 69.5503 98.9517 69.5422L101.916 29.0942C101.914 29.0852 101.914 29.076 101.917 29.0671C101.919 29.0583 101.923 29.05 101.929 29.0429C101.934 29.0358 101.942 29.0301 101.95 29.0262C101.958 29.0223 101.967 29.0203 101.976 29.0203C101.985 29.0203 101.994 29.0223 102.003 29.0262C102.011 29.0301 102.018 29.0358 102.024 29.0429C102.03 29.05 102.034 29.0583 102.036 29.0671C102.038 29.076 102.038 29.0852 102.037 29.0942L99.072 69.5499C99.0707 69.5659 99.0634 69.5809 99.0516 69.5918C99.0397 69.6028 99.0242 69.6088 99.008 69.6087Z" fill="#11A44C"/>
<path d="M102.239 69.6087C102.231 69.6081 102.223 69.6059 102.216 69.6022C102.208 69.5985 102.202 69.5934 102.197 69.5872C102.191 69.581 102.188 69.5738 102.185 69.5661C102.183 69.5584 102.182 69.5503 102.182 69.5422L105.147 29.0942C105.145 29.0852 105.145 29.076 105.147 29.0671C105.15 29.0583 105.154 29.05 105.159 29.0429C105.165 29.0358 105.172 29.0301 105.181 29.0262C105.189 29.0223 105.198 29.0203 105.207 29.0203C105.216 29.0203 105.225 29.0223 105.233 29.0262C105.242 29.0301 105.249 29.0358 105.255 29.0429C105.26 29.05 105.265 29.0583 105.267 29.0671C105.269 29.076 105.269 29.0852 105.267 29.0942L102.305 69.5422C102.306 69.551 102.304 69.5598 102.301 69.5681C102.298 69.5763 102.293 69.5838 102.287 69.59C102.28 69.5963 102.273 69.6012 102.265 69.6044C102.256 69.6076 102.248 69.6091 102.239 69.6087Z" fill="#11A44C"/>
</g>
<path d="M99.1079 28.3749H97.6743V28.1445H99.1079V28.3749ZM96.576 28.3749H91.3383V28.1445H96.576V28.3749Z" fill="#11A44C"/>
<path d="M103.936 69.6704H52.544C51.2768 69.6704 50.3322 68.416 50.4397 66.8749L52.8691 31.8259C52.9766 30.2899 54.0954 29.0278 55.3626 29.0278H106.752C108.032 29.0278 108.964 30.2822 108.856 31.8259L106.427 66.8749C106.327 68.416 105.216 69.6704 103.936 69.6704ZM55.4163 29.2506C54.249 29.2506 53.2224 30.4051 53.1123 31.8259L50.688 66.8749C50.5882 68.2931 51.456 69.4349 52.6259 69.4349H103.57C104.737 69.4349 105.766 68.2803 105.874 66.8749L108.288 31.8259C108.388 30.4051 107.52 29.2506 106.353 29.2506H55.4163Z" fill="#11A44C"/>
<path d="M69.9904 58.8492C69.7393 58.8461 69.4925 58.7837 69.2701 58.6671C69.0477 58.5506 68.8559 58.3831 68.7104 58.1785L52.6823 36.887L53.0509 31.5647L53.3248 30.679L70.3744 53.3298L81.7946 40.5298C81.9632 40.3272 82.173 40.1626 82.41 40.0469C82.6469 39.9313 82.9057 39.8673 83.1693 39.8591C83.4204 39.8623 83.6672 39.9246 83.8896 40.0412C84.112 40.1577 84.3038 40.3252 84.4493 40.5298L95.3088 54.958L92.4288 58.1887L82.7853 45.3887L71.3651 58.1887C71.1957 58.3898 70.9856 58.5526 70.7486 58.6665C70.5117 58.7803 70.2532 58.8426 69.9904 58.8492Z" fill="#11A44C"/>
<path d="M97.1136 50.3115L99.1078 63.5211L88.4941 59.9832L97.1136 50.3115Z" fill="#11A44C"/>
<path d="M32.6451 36.9359L30.9197 40.3612C30.6279 40.9269 30.3488 41.4978 30.0723 42.0636C29.7959 42.6293 29.5322 43.1977 29.3043 43.7276C29.2506 43.8581 29.1968 43.9836 29.1584 44.1013C29.12 44.2191 29.0893 44.3343 29.0893 44.278C29.0893 44.1756 29.0893 44.278 29.0893 44.3394V44.5186L29.1123 44.918C29.1719 45.5101 29.2616 46.0988 29.3811 46.6818C29.6167 47.8953 29.929 49.1445 30.2106 50.3836L28.777 50.9826C28.0889 49.8284 27.503 48.6164 27.0259 47.3602C26.7733 46.7042 26.568 46.0309 26.4115 45.3455C26.3757 45.1586 26.3399 44.9743 26.3117 44.7823L26.2784 44.4751C26.2606 44.3342 26.2564 44.1919 26.2656 44.0501C26.289 43.7904 26.3361 43.5333 26.4064 43.2821C26.4602 43.0825 26.5139 42.9084 26.5703 42.7343C26.793 42.0482 27.0464 41.4338 27.3024 40.8169C27.5584 40.1999 27.8323 39.6009 28.1037 39.0018C28.6618 37.8089 29.2403 36.6441 29.8701 35.4844L32.6451 36.9359Z" fill="#B65B52"/>
<path d="M30.1158 50.1094L30.7942 51.7197L28.4288 51.9398C28.4288 51.9398 27.9808 50.6394 28.6413 49.8918L30.1158 50.1094Z" fill="#B55B52"/>
<path d="M30.5101 53.2482L29.7421 53.4504C29.5954 53.4879 29.4403 53.4734 29.3031 53.4094C29.1659 53.3455 29.0551 53.2361 28.9894 53.0997L28.4339 51.9374L30.7993 51.7173L30.9837 52.4571C31.0255 52.6248 30.9992 52.8023 30.9104 52.9505C30.8216 53.0988 30.6776 53.2059 30.5101 53.2482Z" fill="#B55B52"/>
<path d="M40.96 27.7224C40.9139 27.8837 40.96 28.0399 41.0649 28.0706C41.1699 28.1013 41.2928 27.9989 41.3389 27.8376C41.3849 27.6763 41.3389 27.5227 41.2339 27.4895C41.1289 27.4562 41.0163 27.5637 40.96 27.7224Z" fill="#263238"/>
<path d="M40.96 28.0347C41.0083 28.5828 41.1305 29.1219 41.3236 29.6372C41.1913 29.6822 41.0509 29.6978 40.912 29.6827C40.7731 29.6677 40.6392 29.6225 40.5197 29.5502L40.96 28.0347Z" fill="#A02724"/>
<path d="M41.746 26.7956C41.7576 26.8106 41.7648 26.8286 41.7667 26.8475C41.7685 26.8664 41.7649 26.8854 41.7563 26.9023C41.7477 26.9193 41.7345 26.9334 41.7181 26.9431C41.7018 26.9527 41.683 26.9575 41.664 26.9569C41.5105 26.9498 41.3609 26.9064 41.2274 26.8303C41.0939 26.7542 40.9804 26.6476 40.896 26.5191C40.8828 26.4967 40.879 26.47 40.8855 26.4448C40.892 26.4196 40.9082 26.398 40.9306 26.3847C40.953 26.3715 40.9797 26.3677 41.0049 26.3742C41.0302 26.3807 41.0518 26.3969 41.065 26.4193C41.1332 26.5212 41.2248 26.6052 41.3321 26.6645C41.4395 26.7237 41.5594 26.7564 41.682 26.7598C41.7068 26.7639 41.7295 26.7765 41.746 26.7956Z" fill="#263238"/>
<path d="M35.4304 29.5554C35.6352 30.9403 35.6327 32.5326 34.7623 33.3723C34.7623 33.3723 35.1949 34.9083 38.0083 34.9083C41.0983 34.9083 39.4778 33.5618 39.4778 33.5618C38.1978 33.1624 38.1799 31.6981 38.4538 30.523L36.0013 29.156C35.9377 29.1214 35.8658 29.1052 35.7935 29.1093C35.7212 29.1133 35.6515 29.1374 35.5922 29.1789C35.5329 29.2204 35.4863 29.2776 35.4578 29.3441C35.4292 29.4106 35.4197 29.4838 35.4304 29.5554Z" fill="#B55B52"/>
<path d="M33.9353 34.3631C33.6614 33.7103 33.408 32.9039 33.9507 32.7349C34.4934 32.566 35.7683 33.0984 37.1123 32.8245C38.4563 32.5506 39.7466 32.5685 40.1843 33.2341C40.4302 33.5622 40.5443 33.9704 40.5043 34.3784L33.9353 34.3631Z" fill="#11A44C"/>
<path d="M41.7459 104.551C42.0019 104.551 42.2579 104.512 42.3526 104.394C42.3744 104.363 42.3861 104.325 42.3861 104.287C42.3861 104.249 42.3744 104.211 42.3526 104.179C42.3177 104.122 42.2616 104.081 42.1965 104.064C41.8509 103.972 41.1341 104.384 41.1034 104.402C41.0946 104.406 41.0876 104.414 41.0834 104.422C41.0792 104.431 41.0781 104.441 41.0803 104.451C41.0817 104.461 41.0861 104.47 41.093 104.477C41.0999 104.485 41.1089 104.49 41.1187 104.492C41.3257 104.529 41.5356 104.549 41.7459 104.551ZM42.0685 104.149C42.0999 104.144 42.1318 104.144 42.1632 104.149C42.2035 104.158 42.2385 104.183 42.2605 104.218C42.2963 104.279 42.2835 104.31 42.2605 104.325C42.1658 104.461 41.6435 104.464 41.2595 104.41C41.5092 104.27 41.7842 104.181 42.0685 104.149Z" fill="#11A44C"/>
<path d="M41.1213 104.492H41.1418C41.3978 104.379 41.8765 103.931 41.8355 103.698C41.8355 103.642 41.7869 103.575 41.6538 103.56C41.6051 103.554 41.5559 103.559 41.5091 103.573C41.4624 103.588 41.4192 103.612 41.3824 103.644C41.1264 103.859 41.0726 104.412 41.0701 104.44C41.0699 104.449 41.0716 104.458 41.0751 104.466C41.0787 104.474 41.084 104.481 41.0906 104.486C41.1003 104.49 41.1108 104.492 41.1213 104.492ZM41.6154 103.654H41.6435C41.7331 103.654 41.7382 103.698 41.7408 103.711C41.7638 103.852 41.4336 104.202 41.1802 104.356C41.1976 104.122 41.287 103.899 41.4362 103.718C41.4855 103.675 41.5496 103.652 41.6154 103.654Z" fill="#11A44C"/>
<path d="M38.8071 104.443H40.8755L41.0957 99.6533H39.0272L38.8071 104.443Z" fill="#B55B52"/>
<path d="M40.896 104.205H38.6381C38.5974 104.205 38.558 104.219 38.5263 104.245C38.4947 104.27 38.4727 104.306 38.464 104.346L38.08 106.184C38.0704 106.228 38.071 106.275 38.0817 106.319C38.0925 106.364 38.1132 106.405 38.1422 106.441C38.1712 106.476 38.2079 106.505 38.2494 106.524C38.2909 106.543 38.3363 106.553 38.3821 106.552C39.1961 106.537 40.3737 106.491 41.3977 106.491C42.5933 106.491 42.8288 106.555 44.2342 106.555C45.0841 106.555 45.3069 105.697 44.951 105.618C43.328 105.265 42.8057 105.226 41.3977 104.366C41.2488 104.267 41.075 104.211 40.896 104.205Z" fill="#263238"/>
<path d="M31.9181 33.6974C28.8179 34.3604 27.648 39.2884 27.648 39.2884L31.1629 42.2017C32.3351 41.208 33.1652 39.871 33.536 38.3796C34.176 35.7838 33.9021 33.2801 31.9181 33.6974Z" fill="#263238"/>
<path opacity="0.2" d="M32.768 37.481C31.7287 38.5229 31.0528 40.4198 30.9914 42.0685L31.1655 42.2016C32.3363 41.2061 33.1655 39.8685 33.536 38.377C33.5744 38.2234 33.6052 38.0672 33.6333 37.9162L32.768 37.481Z" fill="black"/>
<path d="M43.3408 35.9143C43.794 38.1491 44.1088 42.7367 43.0055 51.8272H31.9412C31.849 50.1939 32.7322 42.4781 31.2551 34.7776C31.2315 34.6544 31.2328 34.5278 31.2588 34.4051C31.2848 34.2825 31.335 34.1662 31.4066 34.0632C31.4781 33.9602 31.5695 33.8725 31.6753 33.8053C31.7812 33.7381 31.8994 33.6926 32.0231 33.6717C32.9268 33.5238 33.8377 33.4238 34.752 33.3722C36.3183 33.2825 37.8885 33.2825 39.4547 33.3722C39.9667 33.4208 40.4788 33.4951 40.9396 33.5744C41.5288 33.6775 42.0732 33.956 42.5016 34.3734C42.93 34.7909 43.2225 35.3279 43.3408 35.9143Z" fill="#263238"/>
<path opacity="0.2" d="M41.5514 40.4481L42.2861 39.5137C43.7248 39.9796 43.7991 41.3748 43.7197 43.3946C42.496 43.0772 41.8304 41.8279 41.5514 40.4481Z" fill="black"/>
<path opacity="0.2" d="M41.0957 99.6533L40.983 102.124H38.912L39.0272 99.6533H41.0957Z" fill="black"/>
<path d="M35.7479 25.7664C35.2973 27.7734 34.9312 28.9229 35.6275 30.2336C36.6771 32.2074 39.3575 32.0384 40.3943 30.2157C41.3287 28.5747 41.9072 25.5693 40.2176 24.2048C39.8508 23.9009 39.4118 23.697 38.943 23.6127C38.4742 23.5284 37.9916 23.5667 37.5419 23.7238C37.0923 23.8809 36.6908 24.1515 36.3765 24.5094C36.0622 24.8672 35.8456 25.3002 35.7479 25.7664Z" fill="#B55B52"/>
<path d="M37.0304 30.9762C34.8058 31.0095 34.1914 29.3608 34.3834 27.7839C34.5754 26.2069 33.0778 25.3647 33.7792 23.9439C34.2708 22.9429 35.0285 22.9199 35.6276 23.1119C35.9015 21.9343 37.7908 20.9205 39.081 21.9112C40.3712 22.902 42.0045 23.7749 42.409 23.222C42.8135 22.669 43.561 25.4184 40.6477 26.486C40.7707 26.6955 40.8393 26.9324 40.8474 27.1752C40.8554 27.4179 40.8026 27.6589 40.6938 27.876C40.6298 28.0194 39.9872 28.1551 39.9258 28.3036C39.2935 29.5836 38.3258 30.9557 37.0304 30.9762Z" fill="#263238"/>
<path d="M35.561 21.2891C34.9158 23.1988 35.8963 23.7927 35.8963 23.7927L35.561 21.2891Z" fill="#263238"/>
<path d="M38.7917 27.6225C38.7336 28.1304 38.8423 28.6435 39.1015 29.0842C39.4496 29.6628 39.9719 29.4554 40.1639 28.8769C40.338 28.3649 40.3661 27.433 39.8772 27.0516C39.3882 26.6702 38.8736 27.0132 38.7917 27.6225Z" fill="#B55B52"/>
<path d="M24.7603 103.724L26.7418 104.218L28.0474 99.5456L26.0659 99.0515L24.7603 103.724Z" fill="#B55B52"/>
<path d="M27.6967 104.318C27.9527 104.364 28.2087 104.371 28.2983 104.266C28.321 104.235 28.3332 104.197 28.3332 104.158C28.3332 104.119 28.321 104.08 28.2983 104.049C28.2673 103.985 28.2147 103.934 28.1498 103.905C27.8119 103.752 27.0899 104.044 27.0592 104.056C27.0507 104.06 27.0437 104.067 27.0395 104.075C27.0353 104.084 27.0342 104.093 27.0362 104.103C27.0374 104.113 27.0413 104.122 27.0477 104.131C27.054 104.139 27.0624 104.145 27.072 104.149C27.2746 104.224 27.4837 104.281 27.6967 104.318ZM28.0269 103.969C28.0597 103.974 28.0916 103.984 28.1216 103.998C28.1611 104.014 28.1937 104.044 28.2138 104.082C28.2471 104.151 28.2343 104.179 28.2138 104.195C28.1165 104.312 27.6019 104.225 27.2231 104.105C27.4784 104.003 27.7524 103.957 28.0269 103.969Z" fill="#11A44C"/>
<path d="M27.0822 104.151C27.0888 104.154 27.0961 104.154 27.1027 104.151C27.3587 104.082 27.8477 103.713 27.8144 103.47C27.8144 103.414 27.7709 103.34 27.6378 103.301C27.5948 103.289 27.5497 103.286 27.5056 103.292C27.4614 103.299 27.4191 103.315 27.3818 103.34C27.1258 103.511 27.0515 104.067 27.049 104.09C27.048 104.099 27.0492 104.108 27.0523 104.116C27.0554 104.125 27.0604 104.132 27.0669 104.138C27.0709 104.144 27.0761 104.148 27.0822 104.151ZM27.5942 103.383H27.625C27.712 103.406 27.7146 103.442 27.7171 103.455C27.735 103.601 27.3971 103.898 27.1437 104.01C27.1667 103.785 27.266 103.573 27.4253 103.411C27.4777 103.383 27.5391 103.376 27.5968 103.391L27.5942 103.383Z" fill="#11A44C"/>
<path d="M26.857 103.821L24.6323 103.424C24.5934 103.417 24.5532 103.424 24.5192 103.444C24.4852 103.464 24.4599 103.496 24.448 103.534L23.8976 105.303C23.8842 105.348 23.8804 105.394 23.8863 105.44C23.8922 105.486 23.9077 105.531 23.9319 105.57C23.956 105.61 23.9883 105.644 24.0265 105.67C24.0647 105.696 24.108 105.714 24.1536 105.723C24.9549 105.851 26.1197 106.007 27.1283 106.186C28.3085 106.394 27.4432 106.307 28.8282 106.55C29.6627 106.698 29.9648 105.879 29.6218 105.738C28.0576 105.103 27.9194 104.765 27.3178 104.061C27.1957 103.932 27.0333 103.847 26.857 103.821Z" fill="#263238"/>
<path opacity="0.2" d="M28.0474 99.5456L27.3741 101.955L25.3901 101.46L26.0634 99.0515L28.0474 99.5456Z" fill="black"/>
<path d="M32.4045 52.1243C31.9898 52.3086 30.592 52.2932 30.1773 52.6747C29.7626 53.0561 31.3907 54.7227 31.7594 56.0027C32.1126 54.0161 32.4045 52.1243 32.4045 52.1243Z" fill="#11A44C"/>
<path opacity="0.6" d="M32.4045 52.1243C31.9898 52.3086 30.592 52.2932 30.1773 52.6747C29.7626 53.0561 31.3907 54.7227 31.7594 56.0027C32.1126 54.0161 32.4045 52.1243 32.4045 52.1243Z" fill="white"/>
<path d="M39.081 51.8274C39.081 51.8274 36.4826 68.4444 35.1616 74.34C33.7152 80.7989 28.3981 101.002 28.3981 101.002L24.8064 100.096C24.8064 100.096 27.7197 83.8632 28.951 74.8188C29.8982 67.8709 31.9411 51.83 31.9411 51.83L39.081 51.8274Z" fill="#11A44C"/>
<path d="M29.184 100.263C29.2019 100.263 28.6464 101.624 28.6464 101.624L24.3661 100.534L24.553 99.2539L29.184 100.263Z" fill="#263238"/>
<path opacity="0.3" d="M37.0509 59.1899C34.4474 59.5355 35.0029 69.4299 35.0541 74.8239C35.0541 74.7675 35.0771 74.7087 35.0925 74.6523C35.113 74.5448 35.1386 74.4399 35.1616 74.34C35.8938 71.0709 37.0176 64.5096 37.8752 59.3103C37.6029 59.255 37.3277 59.2148 37.0509 59.1899Z" fill="black"/>
<path d="M43.008 51.8274C43.008 51.8274 42.9414 67.2924 42.7955 73.6002C42.647 80.1615 41.751 101.645 41.751 101.645H38.2438C38.2438 101.645 37.097 80.5455 36.8589 74.1019C36.6029 67.0773 35.7325 51.83 35.7325 51.83L43.008 51.8274Z" fill="#11A44C"/>
<path d="M42.2554 52.0859C42.6573 52.2959 44.6797 52.1883 45.0714 52.5979C45.4631 53.0075 43.1053 54.7381 42.6573 55.9874C42.4269 54.0162 42.2554 52.0859 42.2554 52.0859Z" fill="#11A44C"/>
<path opacity="0.6" d="M42.2554 52.0859C42.6573 52.2959 44.6797 52.1883 45.0714 52.5979C45.4631 53.0075 43.1053 54.7381 42.6573 55.9874C42.4269 54.0162 42.2554 52.0859 42.2554 52.0859Z" fill="white"/>
<path d="M42.4038 100.25C42.4217 100.25 42.2246 101.704 42.2246 101.704H37.9622L37.8317 100.406L42.4038 100.25Z" fill="#263238"/>
<path d="M43.0413 35.3767C43.5712 36.0321 44.0781 36.7054 44.5773 37.394C45.0765 38.0826 45.5475 38.7943 45.993 39.529C46.4516 40.269 46.872 41.0321 47.2525 41.8151C47.6559 42.6309 47.9841 43.4818 48.233 44.3572L48.3174 44.6516L48.2944 44.8589C48.2203 45.4737 48.097 46.0815 47.9258 46.6765C47.7722 47.25 47.5776 47.7927 47.3779 48.3303C47.1782 48.8679 46.9504 49.3927 46.7123 49.9073C46.4742 50.4218 46.2208 50.9313 45.929 51.4433L44.4826 50.8801L44.8077 49.2877C44.9126 48.7578 45.0227 48.2279 45.1149 47.7057C45.207 47.1834 45.2992 46.6612 45.3709 46.1543C45.439 45.6733 45.4767 45.1885 45.4835 44.7028L45.545 45.2148C45.2833 44.5237 44.9692 43.8536 44.6054 43.2103C44.2342 42.5396 43.817 41.8791 43.3843 41.2212C42.9517 40.5633 42.4883 39.913 42.0198 39.2679C41.5514 38.6228 41.0598 37.9879 40.5811 37.3351L43.0413 35.3767Z" fill="#B65B52"/>
<path d="M38.7021 36.0962C38.6816 39.0786 41.8765 42.0661 41.8765 42.0661L45.9494 38.6562C45.4317 37.0935 44.4733 35.7138 43.1897 34.6831C40.3993 32.4277 38.7174 33.933 38.7021 36.0962Z" fill="#263238"/>
<path d="M44.9434 38.0263C44.9495 38.0667 44.9471 38.108 44.9364 38.1475C44.9256 38.187 44.9068 38.2239 44.881 38.2557C44.8552 38.2875 44.8231 38.3135 44.7867 38.3322C44.7503 38.3509 44.7103 38.3618 44.6695 38.3642C44.5838 38.3573 44.5038 38.3189 44.4447 38.2566C44.3856 38.1942 44.3517 38.1122 44.3495 38.0263C44.343 37.9856 44.345 37.944 44.3556 37.9042C44.3662 37.8644 44.385 37.8273 44.4108 37.7952C44.4366 37.7631 44.4689 37.7368 44.5055 37.7179C44.5421 37.6991 44.5823 37.6881 44.6234 37.6858C44.7095 37.6928 44.7899 37.7315 44.849 37.7944C44.9081 37.8573 44.9418 37.9399 44.9434 38.0263Z" fill="white"/>
<path d="M42.0685 36.7029C42.075 36.7436 42.0729 36.7852 42.0623 36.825C42.0518 36.8648 42.033 36.9019 42.0072 36.934C41.9814 36.9661 41.9491 36.9924 41.9125 37.0113C41.8758 37.0301 41.8357 37.041 41.7946 37.0434C41.7085 37.0364 41.6281 36.9977 41.569 36.9348C41.5098 36.8719 41.4762 36.7892 41.4746 36.7029C41.4684 36.6624 41.4708 36.6211 41.4816 36.5816C41.4923 36.5421 41.5112 36.5053 41.537 36.4735C41.5627 36.4417 41.5949 36.4156 41.6313 36.3969C41.6677 36.3783 41.7076 36.3674 41.7485 36.365C41.8341 36.3719 41.9142 36.4102 41.9732 36.4726C42.0323 36.535 42.0662 36.617 42.0685 36.7029Z" fill="white"/>
<path d="M42.304 40.0871C42.3101 40.1277 42.3077 40.1691 42.297 40.2088C42.2863 40.2484 42.2675 40.2854 42.2417 40.3174C42.216 40.3494 42.1839 40.3757 42.1475 40.3947C42.111 40.4136 42.0711 40.4248 42.0301 40.4275C41.9442 40.42 41.8642 40.3812 41.8051 40.3184C41.7461 40.2556 41.7123 40.1732 41.7101 40.0871C41.704 40.0465 41.7064 40.005 41.7171 39.9654C41.7278 39.9257 41.7466 39.8887 41.7724 39.8567C41.7981 39.8247 41.8302 39.7984 41.8666 39.7795C41.9031 39.7605 41.943 39.7493 41.984 39.7466C42.0699 39.7541 42.1499 39.793 42.209 39.8558C42.268 39.9186 42.3018 40.0009 42.304 40.0871Z" fill="white"/>
<path d="M42.5395 43.4688C42.5457 43.5094 42.5433 43.5508 42.5326 43.5905C42.5218 43.6301 42.503 43.6671 42.4773 43.6991C42.4515 43.7311 42.4194 43.7574 42.383 43.7764C42.3466 43.7953 42.3066 43.8065 42.2656 43.8093C42.1798 43.8017 42.0997 43.7629 42.0407 43.7001C41.9817 43.6373 41.9478 43.5549 41.9456 43.4688C41.9395 43.4283 41.9419 43.387 41.9526 43.3475C41.9634 43.308 41.9822 43.2712 42.008 43.2394C42.0338 43.2076 42.0659 43.1815 42.1023 43.1628C42.1388 43.1441 42.1787 43.1332 42.2195 43.1309C42.3052 43.1378 42.3852 43.1761 42.4443 43.2385C42.5034 43.3009 42.5373 43.3829 42.5395 43.4688Z" fill="white"/>
<path d="M42.7751 46.848C42.7812 46.8885 42.7788 46.9298 42.768 46.9693C42.7573 47.0088 42.7384 47.0457 42.7127 47.0775C42.6869 47.1093 42.6548 47.1353 42.6183 47.154C42.5819 47.1727 42.542 47.1836 42.5011 47.186C42.4155 47.1791 42.3354 47.1407 42.2764 47.0783C42.2173 47.0159 42.1834 46.9339 42.1811 46.848C42.1746 46.8074 42.1767 46.7658 42.1873 46.726C42.1978 46.6862 42.2166 46.649 42.2424 46.617C42.2683 46.5849 42.3005 46.5585 42.3371 46.5397C42.3738 46.5209 42.4139 46.5099 42.4551 46.5076C42.5411 46.5145 42.6215 46.5532 42.6807 46.6162C42.7398 46.6791 42.7734 46.7617 42.7751 46.848Z" fill="white"/>
<path d="M42.2554 50.2248C42.2615 50.2652 42.2591 50.3065 42.2484 50.346C42.2376 50.3855 42.2187 50.4224 42.193 50.4542C42.1672 50.486 42.1351 50.512 42.0986 50.5307C42.0622 50.5494 42.0223 50.5603 41.9814 50.5627C41.8958 50.5558 41.8158 50.5174 41.7567 50.455C41.6976 50.3927 41.6637 50.3106 41.6614 50.2248C41.6549 50.1843 41.657 50.1429 41.6674 50.1033C41.6778 50.0636 41.6963 50.0266 41.7219 49.9946C41.7474 49.9625 41.7794 49.9361 41.8157 49.9172C41.852 49.8982 41.8919 49.887 41.9328 49.8843C42.0191 49.8912 42.0998 49.9298 42.1594 49.9927C42.2189 50.0555 42.2531 50.1382 42.2554 50.2248Z" fill="white"/>
<path d="M38.953 34.4501C38.9591 34.4906 38.9567 34.5319 38.946 34.5714C38.9352 34.6109 38.9164 34.6477 38.8906 34.6795C38.8648 34.7113 38.8327 34.7374 38.7963 34.7561C38.7598 34.7747 38.7199 34.7856 38.6791 34.788C38.5934 34.7811 38.5134 34.7428 38.4543 34.6804C38.3952 34.618 38.3613 34.536 38.3591 34.4501C38.3525 34.4094 38.3546 34.3679 38.3652 34.328C38.3758 34.2882 38.3945 34.2511 38.4204 34.219C38.4462 34.1869 38.4784 34.1606 38.5151 34.1418C38.5517 34.1229 38.5919 34.112 38.633 34.1096C38.719 34.1166 38.7994 34.1553 38.8586 34.2182C38.9177 34.2811 38.9514 34.3638 38.953 34.4501Z" fill="white"/>
<path d="M39.1885 37.8317C39.1946 37.8723 39.1922 37.9137 39.1815 37.9534C39.1708 37.993 39.1519 38.03 39.1262 38.062C39.1004 38.094 39.0684 38.1203 39.0319 38.1393C38.9955 38.1582 38.9555 38.1694 38.9146 38.1722C38.8287 38.1647 38.7486 38.1258 38.6896 38.063C38.6306 38.0002 38.5967 37.9178 38.5946 37.8317C38.5884 37.7911 38.5908 37.7496 38.6015 37.71C38.6123 37.6704 38.6311 37.6334 38.6568 37.6014C38.6826 37.5694 38.7147 37.5431 38.7511 37.5241C38.7875 37.5051 38.8275 37.4939 38.8685 37.4912C38.9543 37.4987 39.0344 37.5376 39.0934 37.6004C39.1525 37.6632 39.1863 37.7455 39.1885 37.8317Z" fill="white"/>
<path d="M39.424 41.2161C39.4305 41.2568 39.4284 41.2983 39.4179 41.3382C39.4073 41.378 39.3885 41.4151 39.3627 41.4472C39.3369 41.4793 39.3046 41.5056 39.268 41.5244C39.2314 41.5433 39.1912 41.5542 39.1501 41.5566C39.064 41.5496 38.9836 41.5109 38.9245 41.448C38.8654 41.3851 38.8317 41.3024 38.8301 41.2161C38.824 41.1756 38.8264 41.1343 38.8371 41.0948C38.8478 41.0553 38.8667 41.0185 38.8925 40.9867C38.9183 40.9549 38.9504 40.9288 38.9868 40.9101C39.0232 40.8914 39.0631 40.8806 39.104 40.8782C39.1896 40.8851 39.2697 40.9234 39.3288 40.9858C39.3878 41.0482 39.4218 41.1302 39.424 41.2161Z" fill="white"/>
<path d="M39.6595 44.5978C39.6656 44.6383 39.6632 44.6796 39.6525 44.7191C39.6418 44.7586 39.6229 44.7954 39.5971 44.8272C39.5713 44.859 39.5392 44.8851 39.5028 44.9038C39.4664 44.9225 39.4265 44.9333 39.3856 44.9357C39.3 44.9288 39.2199 44.8905 39.1608 44.8281C39.1018 44.7657 39.0678 44.6837 39.0656 44.5978C39.0591 44.5571 39.0612 44.5156 39.0717 44.4758C39.0823 44.4359 39.1011 44.3988 39.1269 44.3667C39.1527 44.3346 39.185 44.3083 39.2216 44.2895C39.2582 44.2706 39.2984 44.2597 39.3395 44.2573C39.4256 44.2643 39.506 44.303 39.5651 44.3659C39.6242 44.4288 39.6579 44.5115 39.6595 44.5978Z" fill="white"/>
<path d="M39.8951 47.9796C39.9016 48.0203 39.8995 48.0619 39.8889 48.1017C39.8784 48.1415 39.8596 48.1786 39.8338 48.2107C39.8079 48.2428 39.7757 48.2691 39.7391 48.288C39.7024 48.3068 39.6623 48.3178 39.6212 48.3201C39.5353 48.3126 39.4552 48.2737 39.3962 48.2109C39.3372 48.1481 39.3033 48.0658 39.3012 47.9796C39.295 47.939 39.2974 47.8976 39.3081 47.8579C39.3189 47.8183 39.3377 47.7813 39.3634 47.7493C39.3892 47.7173 39.4213 47.691 39.4577 47.6721C39.4941 47.6531 39.5341 47.6419 39.5751 47.6392C39.6609 47.6467 39.741 47.6856 39.8 47.7484C39.8591 47.8112 39.8929 47.8935 39.8951 47.9796Z" fill="white"/>
<path d="M37.0944 50.235C37.0922 50.1489 37.0584 50.0665 36.9994 50.0037C36.9403 49.9409 36.8603 49.9021 36.7744 49.8945C36.7334 49.8973 36.6935 49.9085 36.657 49.9274C36.6206 49.9464 36.5885 49.9727 36.5628 50.0047C36.537 50.0367 36.5182 50.0737 36.5075 50.1133C36.4968 50.153 36.4944 50.1944 36.5005 50.235C36.5027 50.3212 36.5365 50.4035 36.5955 50.4663C36.6546 50.5291 36.7346 50.568 36.8205 50.5755C36.8615 50.5728 36.9014 50.5616 36.9379 50.5426C36.9743 50.5236 37.0064 50.4973 37.0321 50.4653C37.0579 50.4333 37.0767 50.3963 37.0874 50.3567C37.0981 50.3171 37.1005 50.2756 37.0944 50.235Z" fill="white"/>
<path d="M36.864 46.848C36.8624 46.7617 36.8287 46.6791 36.7696 46.6162C36.7104 46.5532 36.63 46.5145 36.544 46.5076C36.5029 46.5099 36.4627 46.5209 36.4261 46.5397C36.3895 46.5585 36.3572 46.5849 36.3314 46.617C36.3056 46.649 36.2868 46.6862 36.2762 46.726C36.2656 46.7658 36.2635 46.8074 36.2701 46.848C36.2723 46.9339 36.3062 47.0159 36.3653 47.0783C36.4244 47.1407 36.5044 47.1791 36.5901 47.186C36.6309 47.1836 36.6708 47.1727 36.7073 47.154C36.7437 47.1353 36.7758 47.1093 36.8016 47.0775C36.8274 47.0457 36.8462 47.0088 36.857 46.9693C36.8677 46.9298 36.8701 46.8885 36.864 46.848Z" fill="white"/>
<path d="M36.6234 43.4688C36.6211 43.3829 36.5872 43.3009 36.5281 43.2385C36.469 43.1761 36.389 43.1378 36.3034 43.1309C36.2625 43.1332 36.2226 43.1441 36.1861 43.1628C36.1497 43.1815 36.1176 43.2076 36.0918 43.2394C36.066 43.2712 36.0472 43.308 36.0364 43.3475C36.0257 43.387 36.0233 43.4283 36.0294 43.4688C36.0316 43.5549 36.0655 43.6373 36.1245 43.7001C36.1835 43.7629 36.2636 43.8017 36.3494 43.8093C36.3904 43.8065 36.4304 43.7953 36.4668 43.7764C36.5032 43.7574 36.5353 43.7311 36.5611 43.6991C36.5868 43.6671 36.6056 43.6301 36.6164 43.5905C36.6271 43.5508 36.6295 43.5094 36.6234 43.4688Z" fill="white"/>
<path d="M36.3879 40.0871C36.3857 40.0009 36.3519 39.9186 36.2928 39.8558C36.2338 39.793 36.1537 39.7541 36.0679 39.7466C36.0269 39.7493 35.9869 39.7605 35.9505 39.7795C35.9141 39.7984 35.882 39.8247 35.8562 39.8567C35.8305 39.8887 35.8117 39.9257 35.8009 39.9654C35.7902 40.005 35.7878 40.0465 35.794 40.0871C35.7961 40.1732 35.83 40.2556 35.889 40.3184C35.948 40.3812 36.0281 40.42 36.114 40.4275C36.1549 40.4248 36.1949 40.4136 36.2313 40.3947C36.2678 40.3757 36.2999 40.3494 36.3256 40.3174C36.3513 40.2854 36.3702 40.2484 36.3809 40.2088C36.3916 40.1691 36.394 40.1277 36.3879 40.0871Z" fill="white"/>
<path d="M36.1523 36.7029C36.1501 36.617 36.1162 36.535 36.0571 36.4726C35.998 36.4102 35.918 36.3719 35.8323 36.365C35.7915 36.3674 35.7516 36.3783 35.7151 36.3969C35.6787 36.4156 35.6466 36.4417 35.6208 36.4735C35.595 36.5053 35.5762 36.5421 35.5654 36.5816C35.5547 36.6211 35.5523 36.6624 35.5584 36.7029C35.56 36.7892 35.5937 36.8719 35.6528 36.9348C35.712 36.9977 35.7924 37.0364 35.8784 37.0434C35.9195 37.041 35.9597 37.0301 35.9963 37.0113C36.033 36.9924 36.0652 36.9661 36.091 36.934C36.1168 36.9019 36.1356 36.8648 36.1462 36.825C36.1568 36.7852 36.1589 36.7436 36.1523 36.7029Z" fill="white"/>
<path d="M33.9789 47.9796C33.9767 47.8935 33.9429 47.8112 33.8838 47.7484C33.8248 47.6856 33.7447 47.6467 33.6589 47.6392C33.6179 47.6419 33.5779 47.6531 33.5415 47.6721C33.5051 47.691 33.473 47.7173 33.4472 47.7493C33.4215 47.7813 33.4027 47.8183 33.3919 47.8579C33.3812 47.8976 33.3788 47.939 33.385 47.9796C33.3871 48.0658 33.421 48.1481 33.48 48.2109C33.539 48.2737 33.6191 48.3126 33.705 48.3201C33.7459 48.3174 33.7859 48.3062 33.8223 48.2872C33.8588 48.2683 33.8909 48.242 33.9166 48.21C33.9423 48.178 33.9612 48.141 33.9719 48.1013C33.9826 48.0617 33.985 48.0203 33.9789 47.9796Z" fill="white"/>
<path d="M33.7434 44.5978C33.7418 44.5115 33.7081 44.4288 33.649 44.3659C33.5898 44.303 33.5094 44.2643 33.4234 44.2573C33.3823 44.2597 33.3421 44.2706 33.3055 44.2895C33.2688 44.3083 33.2366 44.3346 33.2108 44.3667C33.185 44.3988 33.1662 44.4359 33.1556 44.4758C33.145 44.5156 33.1429 44.5571 33.1495 44.5978C33.1517 44.6837 33.1856 44.7657 33.2447 44.8281C33.3038 44.8905 33.3838 44.9288 33.4695 44.9357C33.5103 44.9333 33.5502 44.9225 33.5867 44.9038C33.6231 44.8851 33.6552 44.859 33.681 44.8272C33.7068 44.7954 33.7256 44.7586 33.7364 44.7191C33.7471 44.6796 33.7495 44.6383 33.7434 44.5978Z" fill="white"/>
<path d="M33.5079 41.2161C33.5056 41.1302 33.4717 41.0482 33.4126 40.9858C33.3536 40.9234 33.2735 40.8851 33.1879 40.8782C33.147 40.8806 33.1071 40.8914 33.0707 40.9101C33.0342 40.9288 33.0021 40.9549 32.9763 40.9867C32.9506 41.0185 32.9317 41.0553 32.921 41.0948C32.9102 41.1343 32.9078 41.1756 32.914 41.2161C32.9156 41.3024 32.9492 41.3851 33.0084 41.448C33.0675 41.5109 33.1479 41.5496 33.234 41.5566C33.2751 41.5542 33.3152 41.5433 33.3519 41.5244C33.3885 41.5056 33.4207 41.4793 33.4466 41.4472C33.4724 41.4151 33.4912 41.378 33.5017 41.3382C33.5123 41.2983 33.5144 41.2568 33.5079 41.2161Z" fill="white"/>
<path d="M33.28 37.8317C33.2778 37.7455 33.244 37.6632 33.185 37.6004C33.126 37.5376 33.0459 37.4987 32.96 37.4912C32.919 37.4939 32.8791 37.5051 32.8427 37.5241C32.8062 37.5431 32.7741 37.5694 32.7484 37.6014C32.7226 37.6334 32.7038 37.6704 32.6931 37.71C32.6824 37.7496 32.68 37.7911 32.6861 37.8317C32.6883 37.9178 32.7221 38.0002 32.7811 38.063C32.8402 38.1258 32.9202 38.1647 33.0061 38.1722C33.0471 38.1694 33.087 38.1582 33.1235 38.1393C33.1599 38.1203 33.192 38.094 33.2177 38.062C33.2435 38.03 33.2623 37.993 33.273 37.9534C33.2838 37.9137 33.2861 37.8723 33.28 37.8317Z" fill="white"/>
<path d="M33.0368 34.4501C33.0352 34.3638 33.0016 34.2811 32.9424 34.2182C32.8833 34.1553 32.8029 34.1166 32.7168 34.1096C32.6757 34.112 32.6355 34.1229 32.5989 34.1418C32.5623 34.1606 32.53 34.1869 32.5042 34.219C32.4784 34.2511 32.4596 34.2882 32.4491 34.328C32.4385 34.3679 32.4364 34.4094 32.4429 34.4501C32.4452 34.536 32.4791 34.618 32.5382 34.6804C32.5972 34.7428 32.6773 34.7811 32.7629 34.788C32.8038 34.7856 32.8437 34.7747 32.8801 34.7561C32.9165 34.7374 32.9487 34.7113 32.9744 34.6795C33.0002 34.6477 33.0191 34.6109 33.0298 34.5714C33.0406 34.5319 33.043 34.4906 33.0368 34.4501Z" fill="white"/>
<path d="M30.464 40.0871C30.4618 40.0009 30.428 39.9186 30.3689 39.8558C30.3099 39.793 30.2298 39.7541 30.144 39.7466C30.103 39.7493 30.063 39.7605 30.0266 39.7795C29.9902 39.7984 29.9581 39.8247 29.9323 39.8567C29.9066 39.8887 29.8878 39.9257 29.8771 39.9654C29.8663 40.005 29.864 40.0465 29.8701 40.0871C29.8723 40.1732 29.9061 40.2556 29.9651 40.3184C30.0241 40.3812 30.1042 40.42 30.1901 40.4275C30.231 40.4248 30.271 40.4136 30.3074 40.3947C30.3439 40.3757 30.376 40.3494 30.4017 40.3174C30.4274 40.2854 30.4463 40.2484 30.457 40.2088C30.4677 40.1691 30.4701 40.1277 30.464 40.0871Z" fill="white"/>
<path d="M30.2361 36.7029C30.2339 36.617 30.2 36.535 30.1409 36.4726C30.0818 36.4102 30.0018 36.3719 29.9161 36.365C29.8753 36.3674 29.8354 36.3783 29.7989 36.3969C29.7625 36.4156 29.7304 36.4417 29.7046 36.4735C29.6788 36.5053 29.66 36.5421 29.6492 36.5816C29.6385 36.6211 29.6361 36.6624 29.6422 36.7029C29.6436 36.7876 29.6758 36.869 29.7328 36.9316C29.7898 36.9943 29.8678 37.0341 29.952 37.0434C29.994 37.0424 30.0353 37.0325 30.0731 37.0143C30.111 36.9961 30.1445 36.97 30.1714 36.9377C30.1983 36.9054 30.218 36.8678 30.2292 36.8273C30.2404 36.7868 30.2427 36.7444 30.2361 36.7029Z" fill="white"/>
<path d="M46.0596 50.2249L44.8384 50.2761C43.7991 51.3717 44.3495 52.8361 44.3495 52.8361L44.5159 53.5068C44.5361 53.589 44.5726 53.6664 44.6232 53.7343C44.6738 53.8022 44.7375 53.8593 44.8104 53.9022C44.8834 53.9452 44.9643 53.9731 45.0482 53.9843C45.1322 53.9955 45.2175 53.9898 45.2992 53.9676L46.3898 53.6732C46.5162 53.6391 46.6289 53.5666 46.7124 53.4657C46.7958 53.3648 46.8459 53.2405 46.8557 53.11L46.8711 52.9205C46.9248 52.2605 46.7889 51.5988 46.4794 51.0133L46.0596 50.2249Z" fill="#B55B52"/>
</svg>
